<svg width="51" height="51" viewBox="0 0 51 51" fill="none" xmlns="http://www.w3.org/2000/svg">
<g clip-path="url(#clip0_164_1501)">
<path d="M25.8467 50.9269C39.6538 50.9269 50.8467 39.734 50.8467 25.9269C50.8467 12.1198 39.6538 0.92688 25.8467 0.92688C12.0396 0.92688 0.84668 12.1198 0.84668 25.9269C0.84668 39.734 12.0396 50.9269 25.8467 50.9269Z" fill="#F0F0F0"/>
<path d="M50.6351 22.666H29.1077H29.1076V1.13844C28.0401 0.999475 26.9519 0.926819 25.8467 0.926819C24.7415 0.926819 23.6532 0.999475 22.5858 1.13844V22.6658V22.6659H1.0583C0.919336 23.7334 0.84668 24.8216 0.84668 25.9268C0.84668 27.0322 0.919336 28.1203 1.0583 29.1877H22.5856H22.5857V50.7152C23.6532 50.8542 24.7415 50.9268 25.8467 50.9268C26.9519 50.9268 28.0401 50.8543 29.1075 50.7152V29.1879V29.1878H50.6351C50.774 28.1203 50.8467 27.0322 50.8467 25.9268C50.8467 24.8216 50.774 23.7334 50.6351 22.666Z" fill="#D80027"/>
<path d="M16.0628 12.8835V9.62253H12.802V12.8835H9.54102V16.1443H12.802V19.4051H16.0628V16.1443H19.3236V12.8835H16.0628Z" fill="#D80027"/>
<path d="M38.8898 12.8835V9.62253H35.629V12.8835H32.3682V16.1443H35.629V19.4051H38.8898V16.1443H42.1508V12.8835H38.8898Z" fill="#D80027"/>
<path d="M16.0628 35.7097V32.4488H12.802V35.7097H9.54102V38.9705H12.802V42.2314H16.0628V38.9705H19.3236V35.7097H16.0628Z" fill="#D80027"/>
<path d="M38.8898 35.7097V32.4488H35.629V35.7097H32.3682V38.9705H35.629V42.2314H38.8898V38.9705H42.1508V35.7097H38.8898Z" fill="#D80027"/>
</g>
<defs>
<clipPath id="clip0_164_1501">
<rect width="50" height="50" fill="white" transform="translate(0.84668 0.926819)"/>
</clipPath>
</defs>
</svg>
