<svg width="51" height="51" viewBox="0 0 51 51" fill="none" xmlns="http://www.w3.org/2000/svg">
<g clip-path="url(#clip0_164_2710)">
<path d="M25.9194 50.2494C39.7266 50.2494 50.9194 39.0566 50.9194 25.2494C50.9194 11.4423 39.7266 0.249435 25.9194 0.249435C12.1123 0.249435 0.919434 11.4423 0.919434 25.2494C0.919434 39.0566 12.1123 50.2494 25.9194 50.2494Z" fill="#F0F0F0"/>
<path d="M6.08945 10.0288C4.12568 12.5837 2.64492 15.5286 1.78271 18.7277H14.7884L6.08945 10.0288Z" fill="#0052B4"/>
<path d="M50.0602 18.7277C49.1979 15.5286 47.7171 12.5838 45.7534 10.0288L37.0547 18.7277H50.0602Z" fill="#0052B4"/>
<path d="M1.78271 31.771C2.64502 34.9701 4.12578 37.9149 6.08945 40.4698L14.7881 31.771H1.78271Z" fill="#0052B4"/>
<path d="M41.1407 5.41735C38.5857 3.45358 35.641 1.97282 32.4419 1.11051V14.1161L41.1407 5.41735Z" fill="#0052B4"/>
<path d="M10.6997 45.0812C13.2547 47.0449 16.1995 48.5257 19.3985 49.388V36.3825L10.6997 45.0812Z" fill="#0052B4"/>
<path d="M19.3984 1.11051C16.1994 1.97282 13.2546 3.45358 10.6997 5.41725L19.3984 14.116V1.11051Z" fill="#0052B4"/>
<path d="M32.4424 49.388C35.6414 48.5257 38.5862 47.0449 41.1411 45.0813L32.4424 36.3825V49.388Z" fill="#0052B4"/>
<path d="M37.0547 31.771L45.7534 40.4699C47.7171 37.915 49.1979 34.9701 50.0602 31.771H37.0547Z" fill="#0052B4"/>
<path d="M50.7093 21.9885H29.1819H29.1818V0.460995C28.1144 0.322031 27.0261 0.249374 25.9209 0.249374C24.8155 0.249374 23.7274 0.322031 22.6601 0.460995V21.9883V21.9884H1.13252C0.993555 23.0559 0.920898 24.1442 0.920898 25.2494C0.920898 26.3547 0.993555 27.4428 1.13252 28.5102H22.6599H22.66V50.0378C23.7274 50.1767 24.8155 50.2494 25.9209 50.2494C27.0261 50.2494 28.1144 50.1768 29.1817 50.0378V28.5104V28.5103H50.7093C50.8482 27.4428 50.9209 26.3547 50.9209 25.2494C50.9209 24.1442 50.8482 23.0559 50.7093 21.9885Z" fill="#D80027"/>
<path d="M32.4429 31.7711L43.5987 42.9269C44.1118 42.4141 44.6013 41.8778 45.0683 41.322L35.5173 31.771H32.4429V31.7711Z" fill="#D80027"/>
<path d="M19.3991 31.771H19.3989L8.24316 42.9268C8.75605 43.4399 9.29229 43.9293 9.84814 44.3963L19.3991 34.8452V31.771Z" fill="#D80027"/>
<path d="M19.3993 18.7276V18.7274L8.24346 7.57146C7.73037 8.08435 7.24092 8.62058 6.77393 9.17644L16.325 18.7275H19.3993V18.7276Z" fill="#D80027"/>
<path d="M32.4429 18.7275L43.5988 7.57147C43.0859 7.05838 42.5497 6.56893 41.9938 6.10204L32.4429 15.6531V18.7275Z" fill="#D80027"/>
</g>
<defs>
<clipPath id="clip0_164_2710">
<rect width="50" height="50" fill="white" transform="translate(0.919922 0.249268)"/>
</clipPath>
</defs>
</svg>
